<svg width="19" height="18" viewBox="0 0 19 18" fill="none" xmlns="http://www.w3.org/2000/svg">
<path d="M15.2804 8.46969L10.0304 3.21969C9.96123 3.14806 9.87847 3.09092 9.78696 3.05161C9.69546 3.01231 9.59705 2.99162 9.49746 2.99075C9.39788 2.98989 9.29912 3.00886 9.20694 3.04657C9.11477 3.08428 9.03103 3.13997 8.96061 3.21039C8.89019 3.28081 8.8345 3.36455 8.79679 3.45672C8.75908 3.5489 8.74011 3.64766 8.74097 3.74724C8.74184 3.84682 8.76253 3.94524 8.80183 4.03674C8.84114 4.12824 8.89828 4.211 8.96991 4.28019L12.9397 8.24994L4.25016 8.24994C4.05125 8.24994 3.86048 8.32896 3.71983 8.46961C3.57918 8.61026 3.50016 8.80103 3.50016 8.99994C3.50016 9.19885 3.57918 9.38962 3.71983 9.53027C3.86048 9.67092 4.05125 9.74994 4.25016 9.74994L12.9397 9.74994L8.96991 13.7197C8.89828 13.7889 8.84114 13.8716 8.80183 13.9631C8.76253 14.0546 8.74184 14.1531 8.74097 14.2526C8.74011 14.3522 8.75908 14.451 8.79679 14.5432C8.8345 14.6353 8.89019 14.7191 8.96061 14.7895C9.03103 14.8599 9.11477 14.9156 9.20694 14.9533C9.29912 14.991 9.39788 15.01 9.49746 15.0091C9.59704 15.0083 9.69546 14.9876 9.78696 14.9483C9.87847 14.909 9.96122 14.8518 10.0304 14.7802L15.2804 9.53019C15.421 9.38954 15.5 9.19881 15.5 8.99994C15.5 8.80107 15.421 8.61033 15.2804 8.46969Z" fill="#2E3849"/>
</svg>
