<svg width="97" height="96" viewBox="0 0 97 96" fill="none" xmlns="http://www.w3.org/2000/svg">
<g clip-path="url(#clip0_2934_10115)">
<path d="M48.7455 80.2495C49.449 80.7592 50.363 81.6349 52.0093 81.5272C53.878 81.4052 55.3759 79.1464 55.8258 77.8735L62.7529 57.9296C63.4037 56.0871 63.4133 51.7203 60.1711 50.7536C58.2975 50.1937 56.3067 51.0671 55.6559 52.9095L50.2578 67.3428L43.4407 58.121C42.3879 56.4748 40.2009 55.9938 38.5546 57.0467C36.9084 58.0995 36.4275 60.2865 37.4803 61.9327L47.841 79.29C48.0851 79.6704 48.3938 79.9935 48.7455 80.2495Z" fill="#F4BAAF"/>
<path d="M90.2243 42.788C91.1048 42.788 91.8442 42.1252 91.9423 41.2495C92.0571 40.2254 92.117 40.132 92.117 39.0696C92.117 26.5626 83.8953 16.4243 73.7523 16.4243C63.6093 16.4243 55.3877 26.5626 55.3877 39.0696C55.3877 40.1344 55.4475 40.2254 55.5624 41.2495C55.6605 42.1252 56.3998 42.788 57.2804 42.788H90.2219H90.2243Z" fill="#883E28"/>
<path d="M35.3137 29.3187L45.6074 29.2845C49.6177 29.2712 52.8851 32.517 52.8984 36.5273L52.9051 38.5444C52.9184 42.5547 49.6726 45.822 45.6623 45.8353L35.3686 45.8695C31.3583 45.8828 28.091 42.637 28.0777 38.6267L28.071 36.6096C28.0577 32.5993 31.3034 29.332 35.3137 29.3187Z" fill="#F470BD"/>
<path d="M19.1994 25.7822H9.15692C4.92812 25.7822 1.5 29.2103 1.5 33.4391V38.2175C1.5 42.4463 4.92812 45.8745 9.15692 45.8745H19.1994C23.4282 45.8745 26.8564 42.4463 26.8564 38.2175V33.4391C26.8564 29.2103 23.4282 25.7822 19.1994 25.7822Z" fill="#F470BD"/>
<path d="M19.2475 45.8076V49.4351L14.1748 45.8076H19.2475Z" fill="#F470BD"/>
<path d="M14.1341 28.7114C9.78883 28.7114 6.26904 30.0992 6.26904 31.8125V38.742H6.29776C6.59685 40.3475 9.98743 41.6133 14.1341 41.6133C18.2808 41.6133 21.6714 40.3475 21.9705 38.742H21.9992V31.8125C21.9992 30.0992 18.477 28.7114 14.1341 28.7114Z" fill="#FFD269"/>
<path d="M14.134 36.1098C11.0497 36.1098 8.28365 35.4207 6.91498 34.3105C6.81209 34.2267 6.79773 34.076 6.87909 33.9731C6.96284 33.8702 7.11358 33.8558 7.21647 33.9372C8.48465 34.9661 11.2005 35.6289 14.134 35.6289C16.8259 35.6289 19.3551 35.069 20.7333 34.1693C20.8434 34.0975 20.9917 34.1286 21.0635 34.2387C21.1353 34.3488 21.1042 34.4971 20.9941 34.5689C19.5202 35.5308 16.9551 36.1075 14.134 36.1075V36.1098Z" fill="#F9A961"/>
<path d="M14.134 34.1953C11.0497 34.1953 8.28365 33.5062 6.91498 32.3959C6.81209 32.3122 6.79773 32.1614 6.87909 32.0585C6.96284 31.9556 7.11358 31.9413 7.21647 32.0226C8.48465 33.0515 11.2005 33.7143 14.134 33.7143C16.8259 33.7143 19.3551 33.1544 20.7333 32.2547C20.8434 32.183 20.9917 32.2141 21.0635 32.3241C21.1353 32.4342 21.1042 32.5826 20.9941 32.6543C19.5202 33.6162 16.9551 34.1929 14.134 34.1929V34.1953Z" fill="#F9A961"/>
<path d="M14.134 38.0239C11.0497 38.0239 8.28365 37.3348 6.91498 36.2245C6.81209 36.1408 6.79773 35.99 6.87909 35.8872C6.96284 35.7843 7.11358 35.7699 7.21647 35.8513C8.48465 36.8802 11.2005 37.543 14.134 37.543C16.8259 37.543 19.3551 36.983 20.7333 36.0834C20.8434 36.0116 20.9917 36.0427 21.0635 36.1527C21.1353 36.2628 21.1042 36.4112 20.9941 36.483C19.5202 37.4449 16.9551 38.0215 14.134 38.0215V38.0239Z" fill="#F9A961"/>
<path d="M14.134 39.938C11.0497 39.938 8.28365 39.2488 6.91498 38.1386C6.81209 38.0548 6.79773 37.9041 6.87909 37.8012C6.96284 37.6983 7.11358 37.684 7.21647 37.7653C8.48465 38.7942 11.2005 39.457 14.134 39.457C16.8259 39.457 19.3551 38.8971 20.7333 37.9974C20.8434 37.9256 20.9917 37.9567 21.0635 38.0668C21.1353 38.1769 21.1042 38.3252 20.9941 38.397C19.5202 39.3589 16.9551 39.9356 14.134 39.9356V39.938Z" fill="#F9A961"/>
<path d="M40.201 32.6284C35.8557 32.6284 32.3359 34.0162 32.3359 35.7295V38.8305H32.3646C32.6637 40.4361 36.0543 41.7019 40.201 41.7019C44.3477 41.7019 47.7383 40.4361 48.0374 38.8305H48.0661V35.7295C48.0661 34.0162 44.5439 32.6284 40.201 32.6284Z" fill="#FFD269"/>
<path d="M40.1243 38.0239C37.0399 38.0239 34.2739 37.3348 32.9052 36.2245C32.8023 36.1408 32.788 35.99 32.8693 35.8872C32.9531 35.7843 33.1038 35.7699 33.2067 35.8513C34.4749 36.8802 37.1907 37.543 40.1243 37.543C42.8161 37.543 45.3453 36.983 46.7236 36.0834C46.8336 36.0116 46.982 36.0427 47.0538 36.1527C47.1255 36.2628 47.0944 36.4112 46.9844 36.483C45.5104 37.4449 42.9453 38.0215 40.1243 38.0215V38.0239Z" fill="#F9A961"/>
<path d="M40.1243 39.938C37.0399 39.938 34.2739 39.2488 32.9052 38.1386C32.8023 38.0548 32.788 37.9041 32.8693 37.8012C32.9531 37.6983 33.1038 37.684 33.2067 37.7653C34.4749 38.7942 37.1907 39.457 40.1243 39.457C42.8161 39.457 45.3453 38.8971 46.7236 37.9974C46.8336 37.9256 46.982 37.9567 47.0538 38.0668C47.1255 38.1769 47.0944 38.3252 46.9844 38.397C45.5104 39.3589 42.9453 39.9356 40.1243 39.9356V39.938Z" fill="#F9A961"/>
<path d="M35.937 45.8076V49.4351L41.0097 45.8076H35.937Z" fill="#F470BD"/>
<path d="M73.2497 39.0761C78.9091 37.8938 82.7641 33.4276 81.8602 29.1006C80.9562 24.7736 75.6356 22.2243 69.9762 23.4066C64.3168 24.5889 60.4618 29.0551 61.3658 33.3821C62.2697 37.7091 67.5904 40.2584 73.2497 39.0761Z" fill="#F4BAAF"/>
<path d="M69.5123 31.3435C69.8414 31.3435 70.1081 31.0767 70.1081 30.7477C70.1081 30.4186 69.8414 30.1519 69.5123 30.1519C69.1833 30.1519 68.9165 30.4186 68.9165 30.7477C68.9165 31.0767 69.1833 31.3435 69.5123 31.3435Z" fill="#2F2725"/>
<path d="M69.0773 35.8703C68.8428 35.8703 68.6274 35.8368 68.4575 35.7937C68.3307 35.7602 68.2542 35.6286 68.2877 35.5018C68.3212 35.375 68.4528 35.2984 68.5796 35.3319C68.637 35.3463 69.9602 35.6789 70.3359 34.5926C70.379 34.4681 70.5153 34.4011 70.6398 34.4442C70.7642 34.4873 70.8312 34.6237 70.7881 34.7481C70.4818 35.631 69.7114 35.8703 69.0749 35.8703H69.0773Z" fill="#292321"/>
<path d="M73.2539 28.3136L70.3094 26.9679C70.1026 26.8735 69.8585 26.9645 69.764 27.1712L69.7441 27.2147C69.6496 27.4215 69.7406 27.6656 69.9474 27.7601L72.8919 29.1057C73.0986 29.2002 73.3428 29.1092 73.4373 28.9025L73.4572 28.859C73.5517 28.6522 73.4607 28.408 73.2539 28.3136Z" fill="#5A1611"/>
<path d="M73.1302 34.0519C73.8385 34.0519 74.4127 33.4777 74.4127 32.7694C74.4127 32.061 73.8385 31.4868 73.1302 31.4868C72.4219 31.4868 71.8477 32.061 71.8477 32.7694C71.8477 33.4777 72.4219 34.0519 73.1302 34.0519Z" fill="#CD8071"/>
<path d="M83.3209 27.3449C84.1129 25.6117 81.7481 22.8325 78.0389 21.1375C74.3298 19.4424 70.6808 19.4733 69.8887 21.2065C69.0967 22.9397 71.4615 25.7188 75.1707 27.4139C78.8798 29.109 82.5288 29.0781 83.3209 27.3449Z" fill="#883E28"/>
<path d="M77.6098 36.0044H69.6514L69.9624 43.6374C69.9744 44.5514 71.6111 45.2908 73.6306 45.2908C75.6501 45.2908 77.2867 44.5514 77.2987 43.6374L77.6098 36.0044Z" fill="#F4BAAF"/>
<path d="M70.9865 39.7634C70.362 39.7634 69.9097 39.7012 69.8715 39.6964C69.7399 39.6772 69.6489 39.5576 69.6681 39.426C69.6872 39.2944 69.8069 39.2035 69.9385 39.2226C69.9576 39.225 71.7809 39.4715 73.1783 38.9451C73.3027 38.8996 73.4391 38.9618 73.487 39.0838C73.5324 39.2083 73.4702 39.3447 73.3482 39.3925C72.5586 39.6892 71.6708 39.761 70.9889 39.761L70.9865 39.7634Z" fill="#CD8071"/>
<path d="M64.1002 30.6086C64.4292 30.6086 64.696 30.3418 64.696 30.0128C64.696 29.6837 64.4292 29.417 64.1002 29.417C63.7711 29.417 63.5044 29.6837 63.5044 30.0128C63.5044 30.3418 63.7711 30.6086 64.1002 30.6086Z" fill="#2F2725"/>
<path d="M65.0599 26.5453L61.803 27.5866C61.5739 27.6599 61.4476 27.905 61.5208 28.134L61.5361 28.1819C61.6093 28.411 61.8544 28.5373 62.0835 28.4641L65.3404 27.4228C65.5695 27.3496 65.6958 27.1045 65.6226 26.8754L65.6073 26.8275C65.534 26.5984 65.289 26.4721 65.0599 26.5453Z" fill="#5A1611"/>
<path d="M66.2798 33.7001L64.7963 32.1232C64.6671 31.9845 64.6839 31.7667 64.8346 31.6495L67.9046 29.2734L66.2798 33.7001Z" fill="#CD8071"/>
<path d="M86.8366 78.0097H59.4272L61.363 52.1509H84.9702L86.8366 78.0097Z" fill="#A04BCB"/>
<path d="M93.0216 80.1488C94.3951 80.1488 96.6682 79.6033 97.331 76.8946C97.5368 76.05 97.5751 74.466 97.331 73.6309L91.0213 55.2615C90.4733 53.3855 87.3603 52.8711 85.4844 53.419C83.6084 53.967 82.5317 55.9314 83.0772 57.8074L87.7408 72.4464L75.2887 73.93C73.3458 73.8989 71.6923 74.1334 71.6517 76.0883C71.611 78.0432 73.1639 79.6583 75.1164 79.6966L92.9475 80.1488C92.9714 80.1488 92.9953 80.1488 93.0192 80.1488H93.0216Z" fill="#F4BAAF"/>
<path d="M59.3406 76.0092C61.2572 75.2364 66.4519 73.2671 67.6076 73.1762C70.4383 72.9512 74.5994 73.839 77.4061 74.1883C79.0571 74.3941 78.6216 76.4591 76.9706 76.2533C76.9371 76.2485 76.9036 76.2461 76.8701 76.2413C76.8127 76.6792 76.5686 77.0979 76.1092 77.2942C76.0039 77.3396 75.8963 77.3803 75.791 77.4234C75.779 77.7823 75.633 78.1292 75.3507 78.3542C75.657 79.0768 76.5399 79.0217 75.5589 79.3687C74.774 79.6487 72.8431 80.6153 68.5743 79.6487C67.3851 80.0435 66.215 80.4143 64.9062 80.8211C64.1118 81.0676 62.5397 81.2566 62.3962 80.4909C61.1926 80.857 60.7045 81.1489 60.0488 80.3808C59.8383 80.1344 59.8191 79.675 60.0225 79.474C59.2975 79.2945 59.1922 78.1819 60.1374 77.4856C60.1565 77.4712 60.1852 77.5669 60.2068 77.5574C59.8694 77.6052 59.4865 77.543 59.1994 77.3923C58.7017 77.1314 58.8548 76.2054 59.3406 76.0092Z" fill="#F4BAAF"/>
<path d="M58.3835 78.0122C58.2878 78.0122 58.1969 77.9548 58.161 77.859C58.1131 77.737 58.173 77.5982 58.2974 77.548L64.9469 74.9422C65.069 74.8944 65.2077 74.9542 65.258 75.0786C65.3059 75.2007 65.246 75.3394 65.1216 75.3897L58.4721 77.9954C58.4433 78.0074 58.4146 78.0122 58.3859 78.0122H58.3835Z" fill="#CE8071"/>
<path d="M58.8933 79.6419C58.7976 79.6419 58.7066 79.5844 58.6708 79.4887C58.6229 79.3667 58.6827 79.2279 58.8071 79.1777L65.495 76.5624C65.617 76.5145 65.7558 76.5743 65.806 76.6987C65.8539 76.8208 65.7941 76.9596 65.6697 77.0098L58.9818 79.6251C58.9531 79.6371 58.9244 79.6419 58.8957 79.6419H58.8933Z" fill="#CE8071"/>
<path d="M59.4581 81.2736C59.3624 81.2736 59.2739 81.2162 59.2356 81.1229C59.1853 81.0008 59.2452 80.8621 59.3672 80.8118L66.256 78.0266C66.3781 77.9764 66.5168 78.0362 66.5671 78.1582C66.6173 78.2802 66.5575 78.419 66.4355 78.4693L59.5467 81.2545C59.5179 81.2664 59.4868 81.2712 59.4581 81.2712V81.2736Z" fill="#CE8071"/>
<path d="M88.3746 47.7007C86.4173 45.9755 84.0245 44.7958 81.9284 44.011C81.3231 43.7837 80.744 43.5899 80.2056 43.4248C79.5309 45.4491 76.6739 46.9374 73.2761 46.8847C69.8784 46.8321 67.0692 45.2529 66.4615 43.207C65.9183 43.3554 65.3345 43.5301 64.7219 43.7382C62.6019 44.4561 60.1732 45.5591 58.1609 47.2221C56.0792 48.9401 54.5956 51.5028 54.1123 54.4316H54.3205L92.1911 55.037C91.8011 52.0938 90.3989 49.4881 88.3746 47.7031V47.7007Z" fill="#A04BCB"/>
<path d="M73.276 46.8846C76.6738 46.9396 79.5308 45.4513 80.2055 43.4246C80.1457 43.4055 80.0835 43.3863 80.0261 43.3696C79.6337 43.2523 79.2676 43.1518 78.9326 43.0633C78.4229 44.7 76.0852 45.9083 73.2928 45.8652C70.5004 45.8198 68.2033 44.5373 67.7439 42.8862C67.4065 42.9628 67.0356 43.0513 66.6408 43.1566C66.581 43.1734 66.5188 43.1901 66.459 43.2069C67.0691 45.2527 69.8759 46.8295 73.2736 46.8846H73.276Z" fill="#7F35A9"/>
<path d="M76.8798 42.6183L74.7741 42.5848L71.9172 42.5394L69.8115 42.5059C69.8115 42.5059 69.3688 42.5609 68.6343 42.7021C68.3734 42.7523 68.072 42.8145 67.7441 42.8887C68.2012 44.5397 70.5006 45.8247 73.293 45.8677C76.0854 45.9132 78.4231 44.7024 78.9328 43.0658C78.5332 42.9629 78.1791 42.8791 77.88 42.8145C77.2531 42.6781 76.8774 42.6183 76.8774 42.6183H76.8798Z" fill="#F4BAAF"/>
<path d="M54.1127 54.4312L52.2319 60.8151L64.806 63.1505L65.6315 54.2876L54.1127 54.4312Z" fill="#A04BCB"/>
<path d="M92.012 53.5986L94.2971 60.8153L81.7254 63.1506L80.8999 54.2878L92.012 53.5986Z" fill="#A04BCB"/>
<path d="M60.8317 80.0627H25.4041C25.2079 80.0627 25.0356 79.9287 24.9901 79.7372L19.525 57.0871C19.3647 56.4195 19.8696 55.7759 20.5563 55.7759H54.675C55.1656 55.7759 55.5915 56.1109 55.7063 56.5894L61.2432 79.5362C61.3078 79.8042 61.1044 80.0627 60.8293 80.0627H60.8317Z" fill="white"/>
<path d="M38.543 71.5035C40.1209 71.5035 41.4 70.2244 41.4 68.6465C41.4 67.0687 40.1209 65.7896 38.543 65.7896C36.9652 65.7896 35.686 67.0687 35.686 68.6465C35.686 70.2244 36.9652 71.5035 38.543 71.5035Z" fill="#DCE5F2"/>
<path d="M73.6113 80.0625H26.1049C25.7177 80.0625 25.4038 80.3764 25.4038 80.7636V81.8834C25.4038 82.2706 25.7177 82.5845 26.1049 82.5845H73.6113C73.9985 82.5845 74.3124 82.2706 74.3124 81.8834V80.7636C74.3124 80.3764 73.9985 80.0625 73.6113 80.0625Z" fill="#F0F6FC"/>
<path d="M80.3687 54.9097H74.3174V57.2618H80.3687V54.9097Z" fill="#7F35A9"/>
<path d="M82.1489 31.9414C83.7546 31.9414 85.0562 30.6559 85.0562 29.0701C85.0562 27.4843 83.7546 26.1987 82.1489 26.1987C80.5433 26.1987 79.2417 27.4843 79.2417 29.0701C79.2417 30.6559 80.5433 31.9414 82.1489 31.9414Z" fill="#F4BAAF"/>
<path d="M82.2349 30.233C82.132 30.233 82.0387 30.166 82.0052 30.0631C81.9669 29.9363 82.0363 29.8023 82.1631 29.764C82.2588 29.7353 82.3162 29.6898 82.3378 29.63C82.3593 29.563 82.3808 29.362 82.0698 28.9218C81.9358 28.7327 81.8927 28.5174 81.9501 28.3451C81.9932 28.2231 82.0865 28.1298 82.2109 28.0915C82.4215 28.0269 82.7062 28.1034 82.7613 28.1178L83.6562 28.4001C83.783 28.4408 83.8524 28.5748 83.8117 28.6992C83.771 28.8261 83.637 28.8954 83.5126 28.8548L82.6249 28.5724C82.5579 28.5533 82.4742 28.5413 82.4143 28.5389C82.4215 28.5676 82.4383 28.6035 82.4646 28.6418C82.7852 29.0988 82.8953 29.4817 82.7924 29.7808C82.7206 29.9889 82.5483 30.1445 82.3067 30.2187C82.2827 30.2258 82.2588 30.2282 82.2349 30.2282V30.233Z" fill="#CE8071"/>
<path d="M83.3191 35.6406C82.5007 35.6406 81.802 34.8988 81.5771 33.7957C81.5508 33.6665 81.6345 33.5397 81.7637 33.5134C81.893 33.4871 82.0198 33.5708 82.0461 33.7C82.2208 34.5614 82.7448 35.162 83.3191 35.162C84.0417 35.162 84.6542 34.2097 84.6542 33.0803C84.6542 31.9509 84.0441 30.9986 83.3191 30.9986C83.1874 30.9986 83.0798 30.8909 83.0798 30.7593C83.0798 30.6277 83.1874 30.52 83.3191 30.52C84.3192 30.52 85.1328 31.6686 85.1328 33.0803C85.1328 34.492 84.3192 35.6406 83.3191 35.6406Z" fill="white"/>
<path d="M19.1731 32.8629C18.929 32.7576 18.8046 32.7026 18.7257 32.6236C18.6467 32.5446 18.5917 32.4202 18.4864 32.1761C18.4744 32.1474 18.4505 32.1211 18.417 32.1067C18.35 32.078 18.2734 32.1067 18.2447 32.1761C18.1394 32.4202 18.0844 32.5446 18.0054 32.6236C17.9265 32.7026 17.802 32.7576 17.558 32.8629C17.5293 32.8748 17.5029 32.8988 17.4886 32.9323C17.4599 32.9993 17.4886 33.0758 17.558 33.1045C17.802 33.2098 17.9265 33.2649 18.0054 33.3438C18.0844 33.4228 18.1394 33.5472 18.2447 33.7913C18.2567 33.82 18.2806 33.8463 18.3141 33.8607C18.3811 33.8894 18.4577 33.8607 18.4864 33.7913C18.5917 33.5496 18.6467 33.4228 18.7257 33.3438C18.8046 33.2649 18.929 33.2098 19.1731 33.1045C19.2018 33.0926 19.2281 33.0686 19.2425 33.0351C19.2712 32.9682 19.2425 32.8916 19.1731 32.8629Z" fill="#FEF0BC"/>
<path d="M20.6109 29.7786C20.6396 29.7116 20.6109 29.6351 20.5415 29.6063C20.228 29.47 20.0629 29.3982 19.9553 29.2929L19.9505 29.2857C19.8428 29.178 19.7686 29.0129 19.6322 28.6947C19.6203 28.666 19.5964 28.6397 19.5629 28.6253C19.4959 28.5966 19.4193 28.6253 19.3906 28.6947C19.2566 29.0081 19.1824 29.1732 19.0771 29.2809L19.0723 29.2857C18.9647 29.3934 18.7996 29.4676 18.4813 29.604C18.4526 29.6159 18.4263 29.6398 18.4119 29.6733C18.3832 29.7403 18.4119 29.8169 18.4813 29.8456C18.8019 29.982 18.9647 30.0562 19.0723 30.1639C19.18 30.2715 19.2518 30.4366 19.3906 30.7549C19.4025 30.7836 19.4265 30.8099 19.46 30.8243C19.527 30.853 19.6035 30.8243 19.6322 30.7549C19.7686 30.4342 19.8428 30.2715 19.9505 30.1639C20.0582 30.0562 20.2233 29.982 20.5415 29.8456C20.5702 29.8337 20.5965 29.8097 20.6109 29.7762V29.7786Z" fill="#FEF0BC"/>
<path d="M23.638 31.9009C23.0733 31.6593 22.7837 31.5301 22.5851 31.3291C22.3865 31.1305 22.2573 30.8409 22.0157 30.2762C22.0037 30.2475 21.9798 30.2212 21.9463 30.2068C21.8793 30.1781 21.8027 30.2068 21.774 30.2762C21.5323 30.8385 21.4031 31.1305 21.2021 31.3291C21.0035 31.5277 20.714 31.6569 20.1493 31.9009C20.1206 31.9129 20.0942 31.9368 20.0799 31.9703C20.0512 32.0373 20.0799 32.1139 20.1493 32.1426C20.714 32.3843 21.0035 32.5135 21.2021 32.7121C21.4007 32.9107 21.5299 33.2002 21.774 33.7649C21.7859 33.7936 21.8099 33.82 21.8434 33.8343C21.9104 33.863 21.9869 33.8343 22.0157 33.7649C22.2573 33.2002 22.3865 32.9107 22.5851 32.7121C22.7837 32.5135 23.0733 32.3843 23.638 32.1402C23.6667 32.1283 23.693 32.1043 23.7074 32.0708C23.7361 32.0038 23.7074 31.9273 23.638 31.8985V31.9009Z" fill="#FEF0BC"/>
<path d="M30.9743 26.8855V28.515H29.7277V26.8855C27.3995 26.7204 25.8849 25.7202 25.1216 23.9089L27.8326 22.5115C28.2657 23.4423 28.9811 23.8921 29.7612 24.0405V21.6118C27.2009 20.8629 25.6528 19.7335 25.6528 17.5369C25.6528 15.3403 27.4833 13.7778 29.7277 13.5122V12H30.9743V13.4979C33.1518 13.6797 34.5492 14.845 35.1976 16.3405L32.5201 17.8049C32.1875 17.0225 31.6563 16.508 30.9408 16.3238V18.7692C33.884 19.6665 35.4153 20.6643 35.4153 22.8274C35.4153 24.9904 33.9007 26.6845 30.9743 26.8855ZM29.7612 18.3528V16.3405C29.2467 16.4913 28.9141 16.8717 28.9141 17.3551C28.9141 17.7212 29.0816 18.037 29.7612 18.3528ZM32.1061 23.026C32.1061 22.5761 31.8238 22.277 30.9408 21.9612V24.074C31.673 23.94 32.1061 23.5596 32.1061 23.026Z" fill="#FDC221"/>
</g>
<defs>
<clipPath id="clip0_2934_10115">
<rect width="96" height="96" fill="white" transform="translate(0.5)"/>
</clipPath>
</defs>
</svg>
